<svg width="0" height="0" class="hidden">
  <symbol xmlns="http://www.w3.org/2000/svg" viewBox="0 0 24 24" id="folder">
    <path d="M10 4H4C2.89 4 2 4.89 2 6V18C2 18.5304 2.21071 19.0391 2.58579 19.4142C2.96086 19.7893 3.46957 20 4 20H20C20.5304 20 21.0391 19.7893 21.4142 19.4142C21.7893 19.0391 22 18.5304 22 18V8C22 6.89 21.1 6 20 6H12L10 4Z"></path>
  </symbol>
  <symbol xmlns="http://www.w3.org/2000/svg" viewBox="0 0 24 24" id="information-outline">
    <path d="M11 9H13V7H11M12 20C7.59 20 4 16.41 4 12C4 7.59 7.59 4 12 4C16.41 4 20 7.59 20 12C20 16.41 16.41 20 12 20ZM12 2C10.6868 2 9.38642 2.25866 8.17317 2.7612C6.95991 3.26375 5.85752 4.00035 4.92893 4.92893C3.05357 6.8043 2 9.34784 2 12C2 14.6522 3.05357 17.1957 4.92893 19.0711C5.85752 19.9997 6.95991 20.7362 8.17317 21.2388C9.38642 21.7413 10.6868 22 12 22C14.6522 22 17.1957 20.9464 19.0711 19.0711C20.9464 17.1957 22 14.6522 22 12C22 10.6868 21.7413 9.38642 21.2388 8.17317C20.7362 6.95991 19.9997 5.85752 19.0711 4.92893C18.1425 4.00035 17.0401 3.26375 15.8268 2.7612C14.6136 2.25866 13.3132 2 12 2ZM11 17H13V11H11V17Z"></path>
  </symbol>
  <symbol xmlns="http://www.w3.org/2000/svg" viewBox="0 0 24 24" id="lock-outline">
    <path d="M12 17C10.89 17 10 16.1 10 15C10 13.89 10.89 13 12 13C12.5304 13 13.0391 13.2107 13.4142 13.5858C13.7893 13.9609 14 14.4696 14 15C14 15.5304 13.7893 16.0391 13.4142 16.4142C13.0391 16.7893 12.5304 17 12 17ZM18 20V10H6V20H18ZM18 8C18.5304 8 19.0391 8.21071 19.4142 8.58579C19.7893 8.96086 20 9.46957 20 10V20C20 20.5304 19.7893 21.0391 19.4142 21.4142C19.0391 21.7893 18.5304 22 18 22H6C4.89 22 4 21.1 4 20V10C4 8.89 4.89 8 6 8H7V6C7 4.67392 7.52678 3.40215 8.46447 2.46447C9.40215 1.52678 10.6739 1 12 1C12.6566 1 13.3068 1.12933 13.9134 1.3806C14.52 1.63188 15.0712 2.00017 15.5355 2.46447C15.9998 2.92876 16.3681 3.47995 16.6194 4.08658C16.8707 4.69321 17 5.34339 17 6V8H18ZM12 3C11.2044 3 10.4413 3.31607 9.87868 3.87868C9.31607 4.44129 9 5.20435 9 6V8H15V6C15 5.20435 14.6839 4.44129 14.1213 3.87868C13.5587 3.31607 12.7956 3 12 3Z"></path>
  </symbol>
  <symbol xmlns="http://www.w3.org/2000/svg" viewBox="0 0 24 24" id="magnify">
    <path d="M9.5 3C11.2239 3 12.8772 3.68482 14.0962 4.90381C15.3152 6.12279 16 7.77609 16 9.5C16 11.11 15.41 12.59 14.44 13.73L14.71 14H15.5L20.5 19L19 20.5L14 15.5V14.71L13.73 14.44C12.59 15.41 11.11 16 9.5 16C7.77609 16 6.12279 15.3152 4.90381 14.0962C3.68482 12.8772 3 11.2239 3 9.5C3 7.77609 3.68482 6.12279 4.90381 4.90381C6.12279 3.68482 7.77609 3 9.5 3ZM9.5 5C7 5 5 7 5 9.5C5 12 7 14 9.5 14C12 14 14 12 14 9.5C14 7 12 5 9.5 5Z"></path>
  </symbol>
  <symbol xmlns="http://www.w3.org/2000/svg" viewBox="0 0 24 24" id="tray-arrow-down">
    <path d="M2 12H4V17H20V12H22V17C22 18.11 21.11 19 20 19H4C2.9 19 2 18.11 2 17V12ZM12 15L17.55 9.54L16.13 8.13L13 11.25V2H11V11.25L7.88 8.13L6.46 9.55L12 15Z"></path>
  </symbol>
  <symbol xmlns="http://www.w3.org/2000/svg" viewBox="0 0 24 24" id="share-variant">
    <path d="M18 16.08C17.24 16.08 16.56 16.38 16.04 16.85L8.91 12.7C8.96 12.47 9 12.24 9 12C9 11.76 8.96 11.53 8.91 11.3L15.96 7.19C16.5 7.69 17.21 8 18 8C18.7956 8 19.5587 7.68393 20.1213 7.12132C20.6839 6.55871 21 5.79565 21 5C21 4.20435 20.6839 3.44129 20.1213 2.87868C19.5587 2.31607 18.7956 2 18 2C17.2044 2 16.4413 2.31607 15.8787 2.87868C15.3161 3.44129 15 4.20435 15 5C15 5.24 15.04 5.47 15.09 5.7L8.04 9.81C7.5 9.31 6.79 9 6 9C5.20435 9 4.44129 9.31607 3.87868 9.87868C3.31607 10.4413 3 11.2044 3 12C3 12.7956 3.31607 13.5587 3.87868 14.1213C4.44129 14.6839 5.20435 15 6 15C6.79 15 7.5 14.69 8.04 14.19L15.16 18.34C15.11 18.55 15.08 18.77 15.08 19C15.08 20.61 16.39 21.91 18 21.91C19.61 21.91 20.92 20.61 20.92 19C20.92 18.2256 20.6124 17.4829 20.0648 16.9352C19.5171 16.3876 18.7744 16.08 18 16.08Z"></path>
  </symbol>
  <symbol xmlns="http://www.w3.org/2000/svg" viewBox="0 0 24 24" id="window-close">
    <path d="M13.46 12L19 17.54V19H17.54L12 13.46L6.46 19H5V17.54L10.54 12L5 6.46V5H6.46L12 10.54L17.54 5H19V6.46L13.46 12Z"></path>
  </symbol>
  <symbol xmlns="http://www.w3.org/2000/svg" viewBox="0 0 24 24" id="chevron-down">
    <path d="M7.41 8.57999L12 13.17L16.59 8.57999L18 9.99999L12 16L6 9.99999L7.41 8.57999Z"></path>
  </symbol>
  <symbol xmlns="http://www.w3.org/2000/svg" viewBox="0 0 24 24" id="chevron-left">
    <path d="M15.41 16.58L10.83 12L15.41 7.41L14 6L8 12L14 18L15.41 16.58Z"></path>
  </symbol>
  <symbol xmlns="http://www.w3.org/2000/svg" viewBox="0 0 24 24" id="chevron-right">
    <path d="M8.59009 16.58L13.1701 12L8.59009 7.41L10.0001 6L16.0001 12L10.0001 18L8.59009 16.58Z"></path>
  </symbol>
  <symbol xmlns="http://www.w3.org/2000/svg" viewBox="0 0 24 24" id="cog-outline">
    <path d="M12.0001 8C13.061 8 14.0784 8.42143 14.8285 9.17157C15.5787 9.92172 16.0001 10.9391 16.0001 12C16.0001 13.0609 15.5787 14.0783 14.8285 14.8284C14.0784 15.5786 13.061 16 12.0001 16C10.9392 16 9.9218 15.5786 9.17166 14.8284C8.42151 14.0783 8.00008 13.0609 8.00008 12C8.00008 10.9391 8.42151 9.92172 9.17166 9.17157C9.9218 8.42143 10.9392 8 12.0001 8ZM12.0001 10C11.4697 10 10.9609 10.2107 10.5859 10.5858C10.2108 10.9609 10.0001 11.4696 10.0001 12C10.0001 12.5304 10.2108 13.0391 10.5859 13.4142C10.9609 13.7893 11.4697 14 12.0001 14C12.5305 14 13.0392 13.7893 13.4143 13.4142C13.7894 13.0391 14.0001 12.5304 14.0001 12C14.0001 11.4696 13.7894 10.9609 13.4143 10.5858C13.0392 10.2107 12.5305 10 12.0001 10ZM10.0001 22C9.75008 22 9.54008 21.82 9.50008 21.58L9.13008 18.93C8.50008 18.68 7.96008 18.34 7.44008 17.94L4.95008 18.95C4.73008 19.03 4.46008 18.95 4.34008 18.73L2.34008 15.27C2.21008 15.05 2.27008 14.78 2.46008 14.63L4.57008 12.97L4.50008 12L4.57008 11L2.46008 9.37C2.27008 9.22 2.21008 8.95 2.34008 8.73L4.34008 5.27C4.46008 5.05 4.73008 4.96 4.95008 5.05L7.44008 6.05C7.96008 5.66 8.50008 5.32 9.13008 5.07L9.50008 2.42C9.54008 2.18 9.75008 2 10.0001 2H14.0001C14.2501 2 14.4601 2.18 14.5001 2.42L14.8701 5.07C15.5001 5.32 16.0401 5.66 16.5601 6.05L19.0501 5.05C19.2701 4.96 19.5401 5.05 19.6601 5.27L21.6601 8.73C21.7901 8.95 21.7301 9.22 21.5401 9.37L19.4301 11L19.5001 12L19.4301 13L21.5401 14.63C21.7301 14.78 21.7901 15.05 21.6601 15.27L19.6601 18.73C19.5401 18.95 19.2701 19.04 19.0501 18.95L16.5601 17.95C16.0401 18.34 15.5001 18.68 14.8701 18.93L14.5001 21.58C14.4601 21.82 14.2501 22 14.0001 22H10.0001ZM11.2501 4L10.8801 6.61C9.68008 6.86 8.62008 7.5 7.85008 8.39L5.44008 7.35L4.69008 8.65L6.80008 10.2C6.40008 11.37 6.40008 12.64 6.80008 13.8L4.68008 15.36L5.43008 16.66L7.86008 15.62C8.63008 16.5 9.68008 17.14 10.8701 17.38L11.2401 20H12.7601L13.1301 17.39C14.3201 17.14 15.3701 16.5 16.1401 15.62L18.5701 16.66L19.3201 15.36L17.2001 13.81C17.6001 12.64 17.6001 11.37 17.2001 10.2L19.3101 8.65L18.5601 7.35L16.1501 8.39C15.3801 7.5 14.3201 6.86 13.1201 6.62L12.7501 4H11.2501Z"></path>
  </symbol>
  <symbol xmlns="http://www.w3.org/2000/svg" viewBox="0 0 24 24" id="content-copy">
    <path d="M19 21H8V7H19M19 5H8C7.46957 5 6.96086 5.21071 6.58579 5.58579C6.21071 5.96086 6 6.46957 6 7V21C6 21.5304 6.21071 22.0391 6.58579 22.4142C6.96086 22.7893 7.46957 23 8 23H19C19.5304 23 20.0391 22.7893 20.4142 22.4142C20.7893 22.0391 21 21.5304 21 21V7C21 6.46957 20.7893 5.96086 20.4142 5.58579C20.0391 5.21071 19.5304 5 19 5ZM16 1H4C3.46957 1 2.96086 1.21071 2.58579 1.58579C2.21071 1.96086 2 2.46957 2 3V17H4V3H16V1Z"></path>
  </symbol>
  <symbol xmlns="http://www.w3.org/2000/svg" viewBox="0 0 24 24" id="filter">
    <path d="M6 13H18V11H6M3 6V8H21V6M10 18H14V16H10V18Z"></path>
  </symbol>
  <symbol xmlns="http://www.w3.org/2000/svg" viewBox="0 0 24 24" id="check">
    <path d="M21,7L9,19L3.5,13.5L4.91,12.09L9,16.17L19.59,5.59L21,7Z"></path>
  </symbol>
  <symbol xmlns="http://www.w3.org/2000/svg" viewBox="0 0 24 24" id="file">
    <path d="M13,9V3.5L18.5,9M6,2C4.89,2 4,2.89 4,4V20A2,2 0 0,0 6,22H18A2,2 0 0,0 20,20V8L14,2H6Z" />
  </symbol>
  <symbol xmlns="http://www.w3.org/2000/svg" viewBox="0 0 24 24" id="trash">
    <path d="M9,3V4H4V6H5V19A2,2 0 0,0 7,21H17A2,2 0 0,0 19,19V6H20V4H15V3H9M7,6H17V19H7V6M9,8V17H11V8H9M13,8V17H15V8H13Z" />
  </symbol>
  <symbol xmlns="http://www.w3.org/2000/svg" viewBox="0 0 24 24" id="upload-cloud">
    <path d="M6.5 20Q4.22 20 2.61 18.43 1 16.85 1 14.58 1 12.63 2.17 11.1 3.35 9.57 5.25 9.15 5.88 6.85 7.75 5.43 9.63 4 12 4 14.93 4 16.96 6.04 19 8.07 19 11 20.73 11.2 21.86 12.5 23 13.78 23 15.5 23 17.38 21.69 18.69 20.38 20 18.5 20H13Q12.18 20 11.59 19.41 11 18.83 11 18V12.85L9.4 14.4L8 13L12 9L16 13L14.6 14.4L13 12.85V18H18.5Q19.55 18 20.27 17.27 21 16.55 21 15.5 21 14.45 20.27 13.73 19.55 13 18.5 13H17V11Q17 8.93 15.54 7.46 14.08 6 12 6 9.93 6 8.46 7.46 7 8.93 7 11H6.5Q5.05 11 4.03 12.03 3 13.05 3 14.5 3 15.95 4.03 17 5.05 18 6.5 18H9V20M12 13Z" />
  </symbol>
  <symbol xmlns="http://www.w3.org/2000/svg" viewBox="0 0 24 24" id="clock-outline">
    <path d="M12 20C16.4 20 20 16.4 20 12S16.4 4 12 4 4 7.6 4 12 7.6 20 12 20M12 2C17.5 2 22 6.5 22 12S17.5 22 12 22C6.5 22 2 17.5 2 12C2 6.5 6.5 2 12 2M17 13.9L16.3 15.2L11 12.3V7H12.5V11.4L17 13.9Z" />
  </symbol>
  <symbol xmlns="http://www.w3.org/2000/svg" viewBox="0 0 24 24" id="cloud-storage">
    <path d="M17 9l-.351.015c-.825-2.377-3.062-4.015-5.649-4.015-3.309 0-6 2.691-6 6l.001.126c-1.724.445-3.001 2.013-3.001 3.874 0 2.206 1.794 4 4 4h5v-4.586l-1.293 1.293c-.195.195-.451.293-.707.293s-.512-.098-.707-.293c-.391-.391-.391-1.023 0-1.414l2.999-2.999c.093-.093.203-.166.326-.217.244-.101.52-.101.764 0 .123.051.233.124.326.217l2.999 2.999c.391.391.391 1.023 0 1.414-.195.195-.451.293-.707.293s-.512-.098-.707-.293l-1.293-1.293v4.586h4c2.757 0 5-2.243 5-5s-2.243-5-5-5z"/>
  </symbol>
  <symbol xmlns="http://www.w3.org/2000/svg" viewBox="0 0 24 24" id="creation">
    <path d="M19,1L17.74,3.75L15,5L17.74,6.26L19,9L20.25,6.26L23,5L20.25,3.75M9,4L6.5,9.5L1,12L6.5,14.5L9,20L11.5,14.5L17,12L11.5,9.5M19,15L17.74,17.74L15,19L17.74,20.25L19,23L20.25,20.25L23,19L20.25,17.74" />    
  </symbol>
  <symbol xmlns="http://www.w3.org/2000/svg" viewBox="0 0 24 24" id="spinner">
    <g>
      <path d="M14.14 23.74a2.14 2.14 0 0 1-0.39-4.25 7.67 7.67 0 0 0 5.72-5.74 2.14 2.14 0 1 1 4.18 0.91h.01a11.96 11.96 0 0 1-8.96 9.01v-.01a2.13 2.13 0 0 1-0.55.07z" fill="currentColor" />
      <animateTransform attributeName="transform" type="rotate" from="0 12 12" to="360 12 12" dur="1800ms" repeatCount="indefinite"></animateTransform>
    </g>
  </symbol>
</svg>